<?xml version="1.0" encoding="utf-8"?>
<!-- Generator: Adobe Illustrator 26.0.3, SVG Export Plug-In . SVG Version: 6.00 Build 0)  -->
<svg version="1.1" id="Layer_1" xmlns="http://www.w3.org/2000/svg" xmlns:xlink="http://www.w3.org/1999/xlink" x="0px" y="0px"
	 viewBox="0 0 170 24" style="enable-background:new 0 0 170 24;" xml:space="preserve">
<style type="text/css">
	.st0{fill:#0957C3;}
	.st1{fill:#FFFFFE;}
</style>
<g>
	<path class="st0" d="M25.71,12.28c0-0.09,0-0.19,0-0.28s0-0.18,0-0.27c0.05-1.25,0.44-2.46,1.12-3.5c1.28-1.94,3.42-3.1,5.74-3.1
		c2.62,0,4.98,1.46,6.15,3.82l0.14,0.27h4.21l-0.22-0.65c-1.48-4.43-5.61-7.4-10.28-7.4c-3.03,0-5.95,1.29-8,3.53
		c-0.48,0.52-0.91,1.09-1.27,1.7c-0.38,0.62-0.7,1.29-0.94,1.98c-0.38,1.07-0.59,2.2-0.62,3.34c0,0.09,0,0.19,0,0.28s0,0.18,0,0.27
		c-0.05,1.31-0.47,2.56-1.22,3.64c-1.29,1.85-3.4,2.96-5.64,2.96c-3.79,0-6.87-3.08-6.87-6.87s3.08-6.87,6.87-6.87
		c2.25,0,4.36,1.11,5.64,2.96l0.55,0.79l0.33-0.9c0.16-0.46,0.36-0.91,0.58-1.34c0.25-0.49,0.54-0.97,0.85-1.42l0.23-0.33L22.78,4.6
		c-2.04-2.18-4.92-3.43-7.9-3.43C8.91,1.17,4.05,6.03,4.05,12s4.86,10.83,10.83,10.83c2.98,0,5.86-1.25,7.9-3.43
		c0.52-0.55,0.98-1.16,1.37-1.8c0.34-0.56,0.63-1.16,0.87-1.78C25.44,14.69,25.68,13.5,25.71,12.28z"/>
	<path class="st0" d="M38.72,15.05c-1.17,2.35-3.53,3.82-6.15,3.82c-2.31,0-4.46-1.16-5.74-3.1l-0.55-0.84l-0.33,0.95
		c-0.18,0.51-0.39,1.01-0.63,1.48c-0.23,0.46-0.5,0.9-0.79,1.33l-0.22,0.32l0.27,0.29c2.05,2.24,4.97,3.53,8,3.53
		c4.67,0,8.79-2.98,10.28-7.4l0.22-0.65h-4.21L38.72,15.05z"/>
</g>
<g>
	<path class="st1" d="M58.33,21.37c-1.67-0.92-2.98-2.2-3.93-3.82s-1.42-3.45-1.42-5.48s0.47-3.86,1.42-5.48
		c0.95-1.62,2.26-2.9,3.93-3.82s3.55-1.39,5.63-1.39c2.08,0,3.96,0.46,5.63,1.39s2.98,2.2,3.93,3.82s1.42,3.45,1.42,5.48
		s-0.47,3.86-1.42,5.48s-2.26,2.9-3.93,3.82s-3.55,1.39-5.63,1.39C61.88,22.76,60.01,22.29,58.33,21.37z M67.26,17.81
		c0.98-0.57,1.75-1.35,2.31-2.36s0.84-2.13,0.84-3.38c0-1.26-0.28-2.4-0.84-3.4s-1.33-1.78-2.31-2.35c-0.98-0.57-2.08-0.85-3.3-0.85
		c-1.22,0-2.31,0.28-3.3,0.85c-0.98,0.57-1.75,1.35-2.31,2.35s-0.84,2.13-0.84,3.4c0,1.25,0.28,2.38,0.84,3.38s1.33,1.79,2.31,2.36
		s2.08,0.85,3.3,0.85S66.28,18.38,67.26,17.81z"/>
	<path class="st1" d="M90.31,22.31l-0.82-0.97c-1.58,0.95-3.28,1.42-5.09,1.42c-1.55,0-2.9-0.25-4.04-0.75
		c-1.15-0.5-2.03-1.19-2.63-2.08c-0.63-0.9-0.93-1.93-0.93-3.09c0-1.3,0.36-2.42,1.09-3.36c0.72-0.94,1.74-1.75,3.03-2.43
		c-0.57-0.75-1-1.47-1.31-2.17s-0.46-1.43-0.46-2.2c0-1.03,0.28-1.95,0.84-2.76s1.33-1.44,2.31-1.89c0.98-0.45,2.07-0.67,3.27-0.67
		c1.21,0,2.29,0.21,3.23,0.64c0.94,0.42,1.67,1.02,2.2,1.79c0.52,0.77,0.79,1.63,0.79,2.6c0,1.28-0.39,2.38-1.17,3.3
		c-0.78,0.92-1.87,1.74-3.27,2.47l2.62,3.1c0.43-0.92,0.72-1.88,0.87-2.9h4c-0.22,2.26-0.96,4.28-2.22,6.04l3.29,3.92h-5.6V22.31z
		 M87.14,18.51l-3.8-4.52c-0.7,0.37-1.22,0.75-1.56,1.16s-0.51,0.9-0.51,1.46c0,0.75,0.31,1.36,0.92,1.83s1.45,0.71,2.5,0.71
		C85.54,19.16,86.35,18.94,87.14,18.51z M84.13,5.1c-0.39,0.38-0.59,0.87-0.59,1.45c0,0.45,0.12,0.88,0.35,1.29
		c0.23,0.41,0.59,0.91,1.07,1.51c0.8-0.37,1.42-0.77,1.86-1.21c0.44-0.44,0.66-0.96,0.66-1.56s-0.18-1.09-0.54-1.47
		c-0.36-0.38-0.81-0.57-1.36-0.57C85,4.53,84.52,4.72,84.13,5.1z"/>
	<path class="st1" d="M102.7,21.37c-1.66-0.92-2.95-2.2-3.89-3.82s-1.41-3.45-1.41-5.48s0.47-3.86,1.41-5.48s2.24-2.9,3.89-3.82
		s3.52-1.39,5.58-1.39c1.81,0,3.44,0.33,4.88,1c1.44,0.67,2.61,1.58,3.51,2.75s1.49,2.47,1.77,3.92h-4.59
		c-0.25-1-0.87-1.83-1.86-2.5s-2.19-1-3.61-1c-1.21,0-2.31,0.28-3.3,0.84c-0.98,0.56-1.75,1.33-2.31,2.32s-0.84,2.11-0.84,3.36
		c0,1.23,0.28,2.35,0.84,3.35s1.33,1.78,2.31,2.33s2.08,0.84,3.3,0.84c0.93,0,1.81-0.18,2.63-0.55c0.82-0.37,1.51-0.84,2.05-1.42
		s0.87-1.18,0.99-1.8h4.59c-0.22,1.38-0.79,2.68-1.72,3.9c-0.93,1.21-2.15,2.19-3.66,2.93s-3.17,1.11-4.98,1.11
		C106.22,22.76,104.36,22.29,102.7,21.37z"/>
	<path class="st1" d="M128.12,12.96c-1.99,0.76-4.3,1.14-6.93,1.14v-3.72c1.65-0.02,3.11-0.22,4.38-0.61
		c1.27-0.39,2.26-0.94,2.97-1.64c0.71-0.7,1.06-1.52,1.06-2.47V5.18h-8.41V1.53h12.71v3.42c0,0.33-0.01,0.58-0.03,0.75h3.32V1.28
		h4.22v15.81h-4.22V9.6h-4.62C131.6,11.08,130.11,12.2,128.12,12.96z M141.72,18.84v3.77h-19.38v-7.47h4.29v3.7
		C126.63,18.84,141.72,18.84,141.72,18.84z"/>
	<path class="st1" d="M148.81,10.95c-1.27,0.63-2.65,0.99-4.14,1.07v-3.7c1.1-0.13,2.07-0.52,2.91-1.15s1.5-1.45,1.99-2.46
		c0.48-1.01,0.73-2.12,0.75-3.33l4.24,0.25c0,1.3-0.23,2.56-0.7,3.77l5.62,3.47l-2.15,2.87l-5.27-3.35
		C151.15,9.47,150.07,10.31,148.81,10.95z M165.66,19.71v2.9h-19.28v-6.27h14.88v-0.82h-14.93v-2.9h19.1v6.27h-14.88v0.82H165.66z
		 M161.22,6.73h-3.85v-3.7h3.85V1.28h4.22v10.59h-4.22V6.73z"/>
</g>
</svg>
